ibm2402
version=1
nRows=58
nColumns=19
inDegrees=yes
endheader
time	ground_force1_vx	ground_force1_vy	ground_force1_vz	ground_force1_px	ground_force1_py	ground_force1_pz	ground_torque1_x	ground_torque1_y	ground_torque1_z	ground_force2_vx	ground_force2_vy	ground_force2_vz	ground_force2_px	ground_force2_py	ground_force2_pz	ground_torque2_x	ground_torque2_y	ground_torque2_z
2.872000	1.360474	37.298576	-15.174253	0.147035	0.000000	-0.241106	0.000000	-0.430862	0.000000	-64.197998	555.590210	15.420841	-0.219033	0.000000	-0.154027	0.000010	-4.939216	-0.000001	
2.873000	0.444946	35.467522	-16.089781	0.146882	0.000000	-0.217467	-0.000000	-0.386971	0.000001	-64.197998	554.369507	15.115665	-0.218744	0.000000	-0.155577	0.000001	-4.773568	-0.000003	
2.874000	1.970825	45.843498	-16.394957	0.147588	0.000000	-0.221275	0.000001	-0.137378	0.000001	-63.892818	553.759155	16.946720	-0.218600	0.000000	-0.156520	0.000004	-4.484783	-0.000008	
2.875000	1.055298	37.298576	-16.700132	0.143762	0.000000	-0.206742	0.000000	-0.074716	0.000001	-63.587643	549.486694	15.115665	-0.218911	0.000000	-0.155182	0.000002	-4.952143	-0.000003	
2.876000	3.191528	44.012444	-17.615660	0.153034	0.000000	-0.226362	0.000000	0.003750	0.000001	-62.366940	548.265991	12.979435	-0.218842	0.000000	-0.155082	0.000006	-4.777106	-0.000005	
2.877000	0.139771	38.519279	-20.057066	0.150298	0.000000	-0.216004	0.000000	0.132779	0.000001	-63.892818	547.655640	13.589787	-0.219141	0.000000	-0.154364	0.000009	-4.937031	-0.000005	
2.878000	2.276001	40.960686	-18.226011	0.159221	0.000000	-0.214990	0.000001	-0.105368	0.000000	-62.061764	543.993530	12.063908	-0.218485	0.000000	-0.157422	0.000010	-4.593954	-0.000005	
2.879000	1.665649	42.181389	-18.531187	0.164742	0.000000	-0.197164	0.000000	0.130762	0.000000	-63.282467	540.331421	11.453556	-0.218949	0.000000	-0.154423	0.000005	-4.872233	-0.000013	
2.880000	2.276001	44.012444	-18.226011	0.164128	0.000000	-0.209721	0.000001	-0.003927	0.000000	-61.451412	542.162476	11.148380	-0.218266	0.000000	-0.156603	-0.000000	-4.683454	-0.000003	
2.881000	2.581177	36.077873	-19.446714	0.150318	0.000000	-0.212079	0.000000	-0.173052	0.000000	-61.451412	537.279663	9.927677	-0.219113	0.000000	-0.155186	0.000012	-4.845434	0.000001	
2.882000	2.276001	45.843498	-20.972593	0.158239	0.000000	-0.221275	0.000001	0.068161	0.000000	-62.977291	536.058960	10.232853	-0.218815	0.000000	-0.156792	0.000004	-4.794642	-0.000007	
2.883000	2.886353	51.336662	-23.108824	0.150224	0.000000	-0.208192	0.000001	0.016263	0.000000	-60.230709	531.176147	9.622501	-0.218988	0.000000	-0.156740	0.000005	-4.811018	0.000002	
2.884000	2.276001	48.284904	-23.108824	0.152766	0.000000	-0.212565	0.000001	-0.020885	-0.000000	-61.451412	529.955444	8.706974	-0.218456	0.000000	-0.153876	-0.000003	-4.832943	-0.000003	
2.885000	3.496704	53.167717	-23.108824	0.157104	0.000000	-0.207875	0.000001	-0.012354	0.000001	-60.535885	529.955444	9.622501	-0.218917	0.000000	-0.155949	0.000004	-4.506561	-0.000004	
2.886000	3.496704	56.829826	-23.719175	0.148054	0.000000	-0.197637	0.000001	-0.095319	0.000000	-59.925533	525.072632	7.181095	-0.218163	0.000000	-0.155539	0.000009	-4.860996	-0.000006	
2.887000	2.886353	58.050529	-25.855406	0.150198	0.000000	-0.194512	0.000000	-0.218965	0.000000	-59.620358	524.462280	7.486271	-0.218940	0.000000	-0.156186	0.000009	-4.690706	-0.000007	
2.888000	2.276001	55.609123	-25.855406	0.154597	0.000000	-0.191022	0.000001	-0.008471	0.000000	-59.620358	522.631226	6.265568	-0.218248	0.000000	-0.155682	0.000003	-4.809243	-0.000007	
2.889000	5.022583	67.205803	-27.076109	0.142905	0.000000	-0.195123	0.000001	-0.318103	0.000000	-58.399654	520.800171	5.044865	-0.218488	0.000000	-0.156229	0.000000	-4.713726	-0.000010	
2.890000	4.412231	61.712639	-28.296812	0.150186	0.000000	-0.185877	0.000000	0.009239	0.000000	-59.010006	516.527710	4.739689	-0.218581	0.000000	-0.153386	0.000008	-4.745586	-0.000015	
2.891000	5.327759	73.919670	-30.738218	0.156761	0.000000	-0.188044	0.000000	0.120709	0.000001	-58.704830	515.917358	4.434513	-0.217479	0.000000	-0.156880	0.000001	-4.643617	0.000003	
2.892000	5.938110	74.530022	-29.822691	0.156705	0.000000	-0.180763	0.000001	-0.111870	0.000001	-57.178951	511.644897	3.824161	-0.218282	0.000000	-0.152941	0.000006	-4.658052	-0.000006	
2.893000	8.379517	81.854240	-31.653746	0.156105	0.000000	-0.171210	0.000000	0.005990	0.000001	-57.484127	509.813843	3.213810	-0.218048	0.000000	-0.158519	0.000005	-4.302666	-0.000001	
2.894000	8.989868	92.230217	-31.348570	0.154095	0.000000	-0.174337	0.000000	-0.070041	0.000001	-57.789303	505.541382	1.687931	-0.218623	0.000000	-0.156357	0.000001	-4.451549	-0.000004	
2.895000	10.820923	96.502678	-31.043394	0.156444	0.000000	-0.165941	0.000001	-0.320143	0.000001	-56.873775	505.541382	1.687931	-0.217657	0.000000	-0.157444	0.000002	-4.259872	-0.000009	
2.896000	12.957153	108.099358	-29.517515	0.160269	0.000000	-0.150855	-0.000000	-0.042510	-0.000000	-56.263424	503.099976	0.467228	-0.217743	0.000000	-0.153234	0.000003	-4.553317	-0.000007	
2.897000	16.619263	128.851318	-29.822691	0.163352	0.000000	-0.147241	0.000000	0.014291	0.000000	-56.263424	498.827515	-0.143124	-0.218078	0.000000	-0.157605	0.000001	-4.348763	-0.000005	
2.898000	16.008911	141.058350	-30.127867	0.162197	0.000000	-0.133547	0.000000	0.262740	0.000002	-55.958248	496.996460	-1.058651	-0.217347	0.000000	-0.154870	0.000006	-4.550432	-0.000012	
2.899000	16.924438	161.199951	-30.127867	0.165216	0.000000	-0.124687	0.000001	0.197380	-0.000000	-55.958248	492.723999	-2.279354	-0.218426	0.000000	-0.157080	0.000007	-4.602988	-0.000001	
2.900000	18.450317	174.017334	-34.400326	0.169707	0.000000	-0.118586	0.000000	0.734396	0.000002	-55.653072	490.282593	-1.058651	-0.217273	0.000000	-0.155372	0.000001	-4.233964	-0.000002	
2.901000	17.534790	195.379639	-36.536556	0.168802	0.000000	-0.116132	0.000000	0.346619	0.000004	-54.737545	488.451538	-2.584530	-0.218025	0.000000	-0.158954	0.000005	-4.101663	-0.000005	
2.902000	18.755493	213.079834	-42.945248	0.170678	0.000000	-0.117860	0.000001	0.433304	-0.000000	-55.653072	482.348022	-3.805233	-0.217874	0.000000	-0.156916	0.000007	-4.060457	-0.000004	
2.903000	19.671021	239.935303	-42.945248	0.172942	0.000000	-0.113968	-0.000000	0.589838	0.000002	-54.127193	482.348022	-5.025936	-0.217620	0.000000	-0.157295	0.000004	-4.421961	-0.000008	
2.904000	18.450317	261.907959	-47.828060	0.171950	0.000000	-0.107818	-0.000000	0.114734	0.000002	-54.127193	478.685913	-4.415585	-0.217118	0.000000	-0.155439	0.000003	-4.478971	-0.000003	
2.905000	23.943481	289.984131	-52.405697	0.174034	0.000000	-0.106544	0.000000	0.489631	-0.000000	-53.516842	475.023804	-4.110409	-0.217121	0.000000	-0.157022	0.000006	-4.163439	-0.000010	
2.906000	23.943481	319.281006	-56.678158	0.174887	0.000000	-0.103558	0.000003	0.345968	0.000006	-53.516842	470.751343	-6.246639	-0.217990	0.000000	-0.153910	-0.000001	-4.387287	-0.000005	
2.907000	26.995239	344.305420	-62.171322	0.176624	0.000000	-0.101985	0.000001	0.649693	0.000004	-53.822018	467.699585	-6.856991	-0.217128	0.000000	-0.159090	0.000003	-4.249682	-0.000005	
2.908000	31.572876	365.667725	-63.697201	0.176738	0.000000	-0.099641	0.000003	0.941019	0.000002	-52.296139	466.478882	-7.467342	-0.216781	0.000000	-0.155450	-0.000000	-4.324428	0.000001	
2.909000	32.183228	391.302490	-67.969666	0.176546	0.000000	-0.099599	0.000001	0.738002	0.000003	-51.685787	462.206421	-6.856991	-0.216606	0.000000	-0.158208	0.000009	-3.929651	-0.000006	
2.910000	34.014282	418.768311	-69.495544	0.177428	0.000000	-0.098248	-0.000001	1.342453	0.000001	-51.685787	457.323608	-8.077694	-0.216783	0.000000	-0.161365	-0.000001	-4.032310	-0.000005	
2.911000	37.676392	441.961670	-72.547302	0.177094	0.000000	-0.098978	0.000003	1.285583	0.000004	-51.075436	454.271851	-6.856991	-0.216425	0.000000	-0.159896	0.000003	-4.091326	0.000002	
2.912000	37.676392	457.220459	-75.293884	0.176723	0.000000	-0.098311	0.000001	1.357243	0.000008	-50.770260	450.609741	-8.077694	-0.216423	0.000000	-0.158757	0.000003	-4.309518	-0.000002	
2.913000	41.948853	472.479248	-76.514587	0.178961	0.000000	-0.097300	-0.000000	2.033656	-0.000002	-50.159908	449.389038	-8.077694	-0.215246	0.000000	-0.160275	0.000003	-4.107148	-0.000006	
2.914000	41.338501	488.348389	-77.124939	0.178270	0.000000	-0.097230	0.000003	1.755735	0.000005	-49.854733	443.895874	-7.772518	-0.215228	0.000000	-0.160609	0.000001	-4.058355	0.000000	
2.915000	42.559204	499.945068	-76.514587	0.178835	0.000000	-0.097760	0.000001	1.700314	0.000004	-49.549557	439.013062	-9.298397	-0.215676	0.000000	-0.159753	0.000006	-4.192399	-0.000004	
2.916000	43.779907	504.827881	-78.955994	0.179523	0.000000	-0.096563	0.000005	2.092601	0.000005	-49.244381	433.519897	-7.467342	-0.215100	0.000000	-0.157976	0.000002	-4.143073	-0.000003	
2.917000	43.779907	514.593506	-78.040466	0.179674	0.000000	-0.096372	0.000004	1.994194	0.000005	-47.718502	428.026733	-8.077694	-0.215080	0.000000	-0.160432	0.000007	-4.001362	-0.000006	
2.918000	42.254028	513.372803	-77.430115	0.179507	0.000000	-0.095414	0.000002	1.938542	0.000005	-48.634029	423.754272	-7.772518	-0.214295	0.000000	-0.163922	0.000007	-3.658795	-0.000004	
2.919000	41.033325	515.814209	-78.345642	0.181497	0.000000	-0.093065	0.000002	1.999893	0.000001	-48.634029	417.040405	-7.467342	-0.214745	0.000000	-0.163341	0.000002	-3.853885	-0.000005	
2.920000	39.202271	521.917725	-78.955994	0.181363	0.000000	-0.092900	0.000006	1.820977	0.000002	-47.108150	411.547241	-7.162167	-0.213533	0.000000	-0.161962	0.000005	-3.926029	-0.000003	
2.921000	37.371216	516.424561	-78.650818	0.181697	0.000000	-0.091417	-0.000001	2.065009	0.000011	-48.328854	403.612671	-7.162167	-0.212362	0.000000	-0.161214	0.000007	-3.908666	-0.000004	
2.922000	35.540161	527.410889	-77.124939	0.181962	0.000000	-0.092964	0.000003	1.785163	-0.000001	-47.718502	398.729858	-6.551815	-0.214045	0.000000	-0.161657	0.000002	-3.562131	-0.000006	
2.923000	33.403931	522.528076	-75.599060	0.183195	0.000000	-0.091272	0.000004	1.934268	0.000006	-48.939205	388.353882	-5.025936	-0.211041	0.000000	-0.157804	0.000004	-4.050907	-0.000001	
2.924000	33.709106	521.917725	-74.683533	0.183936	0.000000	-0.091848	0.000005	1.789544	0.000013	-47.718502	379.808960	-6.246639	-0.212736	0.000000	-0.161676	0.000004	-3.808195	-0.000007	
2.925000	30.046997	526.800537	-72.242126	0.184548	0.000000	-0.090756	0.000005	1.391347	0.000012	-47.413326	372.484741	-4.720760	-0.214297	0.000000	-0.166821	0.000001	-3.464184	-0.000002	
2.926000	30.657349	528.021240	-70.411072	0.183544	0.000000	-0.091699	0.000004	1.477590	0.000012	-46.192623	362.108765	-2.279354	-0.213442	0.000000	-0.167893	0.000005	-3.306797	-0.000003	
2.927000	28.826294	524.969482	-67.054138	0.183738	0.000000	-0.091424	0.000003	1.647278	0.000005	-46.802975	354.174194	-5.941463	-0.212796	0.000000	-0.163038	-0.000002	-3.599019	0.000000	
2.928000	27.300415	526.800537	-65.833435	0.183853	0.000000	-0.090756	0.000005	1.376187	0.000007	-46.192623	345.629272	-2.584530	-0.212229	0.000000	-0.165302	0.000001	-3.625786	-0.000003	
2.929000	27.300415	521.917725	-65.833435	0.184404	0.000000	-0.089743	0.000002	1.806293	0.000006	-46.192623	335.253296	-2.279354	-0.212334	0.000000	-0.160952	0.000001	-3.533356	-0.000002	
